<?xml version="1.0" encoding="UTF-8"?>
<svg version="1.1" xmlns="http://www.w3.org/2000/svg" width="573" height="571">
<path d="M0 0 C12.48890132 11.24850704 24.91906736 23.01752048 35.05859375 36.4609375 C35.46174805 36.98236328 35.86490234 37.50378906 36.28027344 38.04101562 C80.61452684 95.44605791 98.44760106 166.87232621 89.68408203 238.52294922 C82.55186135 291.57802601 59.18255343 340.72106552 23.15234375 380.14453125 C21.35824392 382.12942155 19.64457794 384.15513761 17.93359375 386.2109375 C7.4080027 398.20914565 -5.12090463 408.05969682 -17.94140625 417.4609375 C-18.79734375 418.10289062 -19.65328125 418.74484375 -20.53515625 419.40625 C-52.61411207 442.78774244 -90.85292315 458.06613569 -129.94140625 464.4609375 C-130.83327637 464.62029785 -131.72514648 464.7796582 -132.64404297 464.94384766 C-160.55939529 469.84632678 -191.0689817 469.28770823 -218.94140625 464.4609375 C-219.89192871 464.3052832 -220.84245117 464.14962891 -221.82177734 463.98925781 C-246.47192775 459.84852844 -270.57055352 451.55169879 -292.94140625 440.4609375 C-294.00343262 439.94611816 -294.00343262 439.94611816 -295.08691406 439.42089844 C-316.78297977 428.83867499 -336.61870187 414.51638759 -354.19140625 398.0234375 C-356.66819919 395.71551681 -359.19369367 393.48767541 -361.75390625 391.2734375 C-365.08980234 388.31282972 -368.07628891 385.23334056 -370.94921875 381.82421875 C-372.48335405 380.00431314 -374.03849509 378.21838811 -375.62109375 376.44140625 C-414.2896283 332.72414197 -439.85117337 272.9960261 -440.14453125 214.23046875 C-440.15159088 213.28562622 -440.15865051 212.34078369 -440.16592407 211.36730957 C-440.38987224 172.60955913 -440.38987224 172.60955913 -436.94140625 155.4609375 C-436.74804688 154.43194336 -436.5546875 153.40294922 -436.35546875 152.34277344 C-429.47504949 116.16748266 -415.56486404 80.47382426 -393.94140625 50.4609375 C-393.50747559 49.85862305 -393.07354492 49.25630859 -392.62646484 48.63574219 C-377.82602607 28.21469082 -361.06590147 8.81831092 -340.94140625 -6.5390625 C-339.98878906 -7.30863281 -339.03617187 -8.07820313 -338.0546875 -8.87109375 C-261.06223122 -70.21389141 -153.7998816 -80.17125123 0 0 Z " fill="#EF7F1A" transform="translate(460.94140625,85.5390625)"/>
<path d="M0 0 C40.09251116 -0.73496429 80.18413371 -1.29756284 120.28205368 -1.63409054 C125.03261056 -1.67410565 129.78315424 -1.71552469 134.53369141 -1.7578125 C135.95210967 -1.7704034 135.95210967 -1.7704034 137.39918286 -1.78324866 C152.64388006 -1.9219078 167.88465404 -2.17386262 183.12703568 -2.46888947 C198.80699655 -2.76981881 214.48492627 -2.94622389 230.16765547 -3.01083183 C238.9618609 -3.0505346 247.74787122 -3.14549236 256.53913879 -3.38336182 C317.91039127 -4.99776428 317.91039127 -4.99776428 335.3768692 11.56985474 C351 27.8137169 351 27.8137169 351 34 C293.25 34 235.5 34 176 34 C176 62.05 176 90.1 176 119 C180.95 117.68 185.9 116.36 191 115 C196.4904753 113.85707185 201.98217069 112.78662673 207.49414062 111.7578125 C209.06518555 111.45617187 209.06518555 111.45617187 210.66796875 111.1484375 C211.59891357 110.97489746 212.5298584 110.80135742 213.48901367 110.62255859 C215.90408595 110.02378034 217.83349958 109.20653795 220 108 C219.7834375 106.14375 219.7834375 106.14375 219.5625 104.25 C219.48128906 103.55390625 219.40007812 102.8578125 219.31640625 102.140625 C219.04699937 100.02923545 219.04699937 100.02923545 218.49511719 98.1328125 C217.62342556 94.37783317 217.73187332 90.58977155 217.6875 86.75 C217.65849609 85.92886719 217.62949219 85.10773438 217.59960938 84.26171875 C217.52766568 77.27764583 219.41131173 72.4644634 223.5703125 66.8984375 C232.0818157 58.55801979 240.31734385 54.65744695 252.17626953 54.6171875 C264.46892555 54.86515871 273.66898612 60.38109876 283 68 C283.78117187 68.60585937 284.56234375 69.21171875 285.3671875 69.8359375 C295.6284983 78.25092248 304.98868022 91.68506309 307 105 C307.58849276 113.9405631 307.71474907 120.68285919 301.6875 127.6875 C293.64674887 134.60628586 285.40967509 137.0361412 275 138 C278.85838486 146.65213576 287.35374431 153.37377296 294 159.9375 C318.88945385 184.5883233 318.88945385 184.5883233 319.0625 194.625 C319.041875 195.73875 319.02125 196.8525 319 198 C312.00455071 201.68850963 305.4868857 201.43434873 297.71289062 201.43945312 C286.80145663 201.64887178 277.75994141 205.19686783 270 213 C263.76348456 221.11352494 258.9894282 229.5574247 260 240 C261.56435288 244.0226217 262.38723663 245.59149109 266 248 C279.16618437 249.75549125 291.89688905 241.59475237 302 234 C308.77026713 228.77830164 315.12776358 223.14487217 321.421875 217.36328125 C326.13350076 213.04429097 330.85013419 208.79165944 336 205 C339.7450714 206.58378019 342.2927948 208.92441301 345.25 211.6875 C345.7543457 212.15647705 346.25869141 212.6254541 346.77832031 213.10864258 C348.52350222 214.73421619 350.26176426 216.36700191 352 218 C353.44770613 219.35439174 354.8956324 220.70854821 356.34375 222.0625 C360.23428177 225.70290164 364.11896124 229.3494813 368 233 C361.81693836 240.31503754 355.27899128 247.2647916 348.68847656 254.21191406 C347.37147289 255.60661258 346.06944026 257.01545291 344.7734375 258.4296875 C332.66628605 271.28353551 317.3082639 281.03770221 299.45703125 282.23828125 C280.88129134 282.61656534 266.43354564 274.43184317 253 262 C245.2749268 254.44779557 237.76862681 246.80685796 233 237 C232.60425781 236.20851563 232.20851563 235.41703125 231.80078125 234.6015625 C227.94369695 226.45431777 227.76595551 218.65208467 227.6875 209.75 C227.65849609 208.66847656 227.62949219 207.58695313 227.59960938 206.47265625 C227.51089354 195.15797539 230.62782864 187.5072464 238.4296875 179.33203125 C249.79519364 169.02016626 261.18141711 166.7647844 276 167 C271.7241882 160.86079941 266.74576123 155.31257519 261.625 149.875 C260.70738892 148.84330688 260.70738892 148.84330688 259.77124023 147.79077148 C256.4549983 144.293374 256.4549983 144.293374 252.05249023 142.69677734 C249.62547912 142.9229831 247.3714329 143.43152946 245 144 C242.61140618 144.43888263 240.22200439 144.87337928 237.83203125 145.3046875 C235.83533605 145.68872469 233.84031963 146.08067356 231.84545898 146.47412109 C229.83454205 146.87065353 227.82266934 147.26197969 225.81054688 147.65234375 C209.48289606 150.83335101 193.25532222 154.4662343 177 158 C176.505 217.895 176.505 217.895 176 279 C163.69550154 272.84775077 147.75958682 259.79893567 143.1229248 246.48071289 C140.15411646 234.11250607 141.17630576 221.00487009 141.8885498 208.41845703 C142.10861993 203.64295949 141.99497422 198.87529845 141.92089844 194.09643555 C141.85984281 189.7280355 141.92238678 185.36789935 142 181 C122.55242142 193.91539249 103.17345656 206.93060356 83.8269043 219.99682617 C79.61449363 222.8417858 75.40091275 225.68500055 71.18591309 228.52612305 C69.79720383 229.46247618 68.40889234 230.39941973 67.02111816 231.3371582 C65.34116013 232.47187759 63.65895946 233.60327484 61.9765625 234.734375 C61.09307129 235.32959961 60.20958008 235.92482422 59.29931641 236.53808594 C57.24296384 237.84552267 55.18525859 238.93034525 53 240 C48.73947129 235.78885771 44.48551408 231.57122747 40.23754883 227.34741211 C38.79110206 225.91103153 37.34286651 224.47644996 35.89282227 223.04370117 C33.81054931 220.98564898 31.73476552 218.92124247 29.66015625 216.85546875 C29.00910416 216.21473923 28.35805206 215.5740097 27.68727112 214.91386414 C27.08672409 214.31346817 26.48617706 213.7130722 25.86743164 213.09448242 C25.33670547 212.56819748 24.80597931 212.04191254 24.25917053 211.49967957 C23 210 23 210 22 207 C44.14769541 191.56822642 44.14769541 191.56822642 53 185.5 C59.52081657 181.0297816 66.01255494 176.51849286 72.5 172 C78.98744584 167.48150659 85.47924078 162.97030281 92 158.5 C101.46214512 152.01210002 110.89451238 145.47880391 120.28027344 138.88085938 C122.12821172 137.6028956 123.99722806 136.35499302 125.88378906 135.13476562 C126.7909668 134.53857422 127.69814453 133.94238281 128.6328125 133.328125 C129.4489502 132.80637695 130.26508789 132.28462891 131.10595703 131.74707031 C133.44083107 129.59337624 133.69222409 128.10688203 134 125 C119.25998981 112.11909019 97.62508143 112.88466884 79.30029297 113.75634766 C66.75718448 114.68237386 56.13485626 119.32423552 46.1640625 126.8671875 C45.49568359 127.3717749 44.82730469 127.8763623 44.13867188 128.39624023 C42.81715145 129.40772889 41.5079235 130.43552611 40.21289062 131.48071289 C35.72839017 134.96433698 35.72839017 134.96433698 32.3671875 135.12890625 C29.16447462 133.60153987 27.40018943 131.62794463 25 129 C23.76956716 127.74743094 22.53342743 126.50045344 21.29296875 125.2578125 C20.62330078 124.58363281 19.95363281 123.90945313 19.26367188 123.21484375 C18.57853516 122.52519531 17.89339844 121.83554687 17.1875 121.125 C16.51396484 120.44308594 15.84042969 119.76117188 15.14648438 119.05859375 C10.60238953 114.49275682 5.90351196 110.17727802 1 106 C2.07455917 100.6674394 5.66804403 98.603457 9.9296875 95.5859375 C32.64344134 80.56423205 57.89824691 74.98654635 84.96484375 79.71875 C88.73909301 80.54527282 92.36316395 81.69227752 96 83 C97.56814453 83.56074219 97.56814453 83.56074219 99.16796875 84.1328125 C102.1792828 85.30928966 105.08322485 86.60638603 108 88 C109.48306641 88.70189453 109.48306641 88.70189453 110.99609375 89.41796875 C118.86545456 93.39685905 125.84357332 98.30448624 132.90869141 103.55664062 C133.6413623 104.10126953 134.3740332 104.64589844 135.12890625 105.20703125 C136.10452515 105.94143433 136.10452515 105.94143433 137.09985352 106.69067383 C139.26976294 108.25092172 139.26976294 108.25092172 143 110 C143 84.92 143 59.84 143 34 C135.3378125 34.2784375 127.675625 34.556875 119.78125 34.84375 C114.87710597 34.96663636 109.97490368 35.08215926 105.0703125 35.171875 C97.31199009 35.3144732 89.56056753 35.48159042 81.80761719 35.81054688 C34.70850689 37.75768389 34.70850689 37.75768389 22.61333466 27.24936676 C18.10109873 22.90405964 14.45450466 18.00589822 10.99584961 12.79174805 C8.56527319 9.39191424 5.82015944 6.93716597 2.53234863 4.39025879 C1 3 1 3 0 0 Z " fill="#FDFDFC" transform="translate(103,146)"/>
<path d="M0 0 C21.36522902 9.0303341 39.96413955 11.50888904 63.17285156 10.16796875 C77.19733961 9.58075761 84.8538166 11.96462035 95.27368164 21.51928711 C95.92080109 22.1395578 96.56792053 22.75982849 97.23464966 23.39889526 C99.47471195 25.5306374 101.85460056 27.44312829 104.2890625 29.34765625 C106.34972472 31.00795039 108.40653577 32.66947867 110.44140625 34.36132812 C118.52834752 40.81431571 127.85484544 43.78260941 137.59765625 46.85546875 C138.34793091 47.0943129 139.09820557 47.33315704 139.87121582 47.57923889 C144.52349683 49.06111724 144.52349683 49.06111724 149.19311523 50.48706055 C164.9847481 55.22963232 164.9847481 55.22963232 169.5793457 63.3527832 C170.05331787 64.25730225 170.52729004 65.16182129 171.015625 66.09375 C172.2739754 68.03675447 173.54940288 69.96878358 174.83984375 71.890625 C176.1293446 73.87386946 177.4170943 75.85825357 178.703125 77.84375 C179.99843741 79.83871084 181.2940028 81.83350744 182.58984375 83.828125 C183.18458496 84.74658203 183.77932617 85.66503906 184.39208984 86.61132812 C185.72640494 88.65152601 187.08916845 90.66505753 188.47265625 92.671875 C190.015625 95.09375 190.015625 95.09375 190.015625 97.09375 C190.55960937 97.33609375 191.10359375 97.5784375 191.6640625 97.828125 C194.57917875 99.397058 197.02944184 101.30608252 199.640625 103.34375 C200.46421509 103.98497803 200.46421509 103.98497803 201.30444336 104.63916016 C202.52700274 105.59121505 203.74854498 106.54457708 204.96923828 107.49902344 C207.21638441 109.25019959 209.47283147 110.9889351 211.73046875 112.7265625 C213.34645882 113.97382275 214.96234504 115.22121757 216.578125 116.46875 C217.35172363 117.06333008 218.12532227 117.65791016 218.92236328 118.27050781 C219.65567871 118.83866211 220.38899414 119.40681641 221.14453125 119.9921875 C221.79494385 120.49411621 222.44535645 120.99604492 223.11547852 121.51318359 C223.74252686 122.03477051 224.3695752 122.55635742 225.015625 123.09375 C225.70503174 123.62274902 226.39443848 124.15174805 227.10473633 124.69677734 C229.96670802 128.28676559 230.52334011 132.11427783 231.4609375 136.546875 C231.90279644 138.46634156 232.34553492 140.38560582 232.7890625 142.3046875 C233.4650302 145.30326078 234.1318545 148.30317307 234.78125 151.30761719 C237.78176569 165.05235749 241.74221572 175.70266771 250.015625 187.09375 C250.78617424 188.19834128 251.55370448 189.30504609 252.31787109 190.4140625 C255.11640478 194.45631911 257.92740267 198.48662876 260.81640625 202.46484375 C265.36361392 209.03880684 267.10374959 213.18168108 266.015625 221.09375 C265.85481445 222.35461426 265.69400391 223.61547852 265.52832031 224.91455078 C265.43859955 225.61580078 265.34887878 226.31705078 265.25643921 227.03955078 C262.34690319 249.94287768 263.57777886 268.68449239 270.03833008 290.94873047 C270.43072121 292.30173248 270.43072121 292.30173248 270.83103943 293.68206787 C271.32952576 295.36865098 271.84333638 297.05081255 272.37538147 298.72711182 C274.85113534 306.83695656 272.8270631 312.02635123 269.26953125 319.4296875 C268.50627877 321.06859963 267.74393923 322.70793718 266.98242188 324.34765625 C265.7896194 326.89694576 264.59065342 329.44259511 263.37475586 331.98095703 C256.25602015 346.89654247 254.20885277 359.2526918 253.5740509 375.69555664 C252.55808368 400.27981935 252.55808368 400.27981935 244.390625 408.09375 C242.54983213 409.71857602 240.682409 411.25384197 238.72802734 412.73974609 C236.24553183 414.70266598 234.25837528 417.00906428 232.203125 419.40625 C230.14562848 421.74639924 228.07588521 424.03344172 225.87304688 426.23803711 C219.44351352 432.83372854 215.83290973 439.96326505 212.328125 448.34375 C211.79540878 449.57759685 211.2609068 450.81067426 210.72460938 452.04296875 C207.51806636 459.42444611 207.51806636 459.42444611 204.60302734 466.92382812 C201.4600587 475.15371367 198.93827929 479.25336903 191.015625 483.09375 C189.77094593 483.73567768 188.52791058 484.38079802 187.28613281 485.02832031 C182.17328108 487.6735473 177.04698295 490.29472866 171.87744141 492.82763672 C161.06323395 498.14667687 153.59036847 503.7318379 146.015625 513.09375 C144.89999872 514.32605481 143.77456539 515.54967447 142.6328125 516.7578125 C142.16746094 517.26054688 141.70210938 517.76328125 141.22265625 518.28125 C140.32713127 519.24768165 139.43129272 520.21382283 138.53515625 521.1796875 C138.07238281 521.67984375 137.60960937 522.18 137.1328125 522.6953125 C136.63620117 523.21125977 136.13958984 523.72720703 135.62792969 524.25878906 C133.91348106 526.13021156 133.91348106 526.13021156 132.34863281 528.57714844 C126.96149427 535.93894167 121.7120068 537.52945247 113.10183716 538.9649353 C110.40959667 539.36863684 107.7138789 539.73266156 105.015625 540.09375 C103.20513954 540.36457683 101.39523087 540.63928922 99.5859375 540.91796875 C97.02653625 541.31127284 94.46779138 541.69930385 91.90307617 542.05639648 C83.89983947 543.1743912 76.65917562 544.36710848 69.50390625 548.32421875 C68.92835495 548.63772781 68.35280365 548.95123688 67.7598114 549.27424622 C65.94330732 550.26619336 64.1355432 551.27285994 62.328125 552.28125 C61.13927217 552.93663698 59.94982112 553.59094 58.75976562 554.24414062 C58.17212936 554.56738815 57.5844931 554.89063568 56.97904968 555.22367859 C55.78226944 555.87677706 54.58202325 556.52356206 53.37849426 557.16413879 C50.39670988 558.75474037 47.57738804 560.38327543 44.75073242 562.25073242 C33.75622408 568.99460609 24.77106512 566.61071315 12.703125 564.03125 C9.89590994 563.47416113 7.08650817 562.9302931 4.27558899 562.39222717 C2.54087855 562.0556295 0.8086274 561.70597554 -0.92024231 561.34056091 C-9.90025456 559.5023325 -17.25612736 559.8984679 -26.07421875 562.2578125 C-47.1820023 567.3504325 -62.0938332 569.12565945 -81.15328979 557.56622314 C-85.50546242 554.85167984 -89.74190779 551.97550434 -93.984375 549.09375 C-103.37185544 542.82617844 -114.37013899 542.03080656 -125.296875 540.40625 C-128.17494233 539.96638124 -131.05214921 539.52172369 -133.92851257 539.07084656 C-135.70816882 538.79310363 -137.48891918 538.52225586 -139.27082825 538.25935364 C-146.77305792 537.10966955 -150.90347776 535.63836149 -156.046875 529.78125 C-157.01250513 528.6948539 -157.97867025 527.60893314 -158.9453125 526.5234375 C-159.44256836 525.95979492 -159.93982422 525.39615234 -160.45214844 524.81542969 C-162.98225269 521.97248909 -165.57985529 519.19264004 -168.171875 516.40625 C-169.10394393 515.40334578 -170.03493851 514.399442 -170.96484375 513.39453125 C-171.45114258 512.87753662 -171.93744141 512.36054199 -172.43847656 511.82788086 C-173.984375 510.09375 -173.984375 510.09375 -175.56933594 508.00219727 C-181.63005103 500.33352045 -189.29608982 496.68983835 -197.859375 492.40625 C-224.67101673 478.72490416 -224.67101673 478.72490416 -227.359375 471.90625 C-227.90853885 470.59752389 -228.45804898 469.28894307 -229.0078125 467.98046875 C-229.30913086 467.23071777 -229.61044922 466.4809668 -229.92089844 465.70849609 C-231.67863556 461.38678706 -233.53707661 457.10986853 -235.40478516 452.8347168 C-236.43718474 450.47136746 -237.45572038 448.10190033 -238.45849609 445.72583008 C-242.59154638 436.19581873 -247.83177382 429.0091571 -255.25390625 421.81640625 C-257.58427014 419.49656319 -259.70444543 417.03553997 -261.79589844 414.49951172 C-264.00099545 411.96972924 -264.00099545 411.96972924 -266.92016602 409.6159668 C-273.04527315 404.26458047 -276.5580118 399.6719539 -277.3298645 391.41069031 C-277.52288623 387.4903049 -277.63840165 383.57602557 -277.68484497 379.65115356 C-278.05070402 356.60564023 -283.29030894 338.76733042 -294.23852539 318.65844727 C-298.34388863 310.27606596 -299.57500945 305.30650765 -296.8359375 296.2578125 C-296.32029259 294.36849502 -295.80466828 292.47917191 -295.2890625 290.58984375 C-294.45844219 287.6680662 -293.61820822 284.74925865 -292.7734375 281.83154297 C-289.14981916 269.16829104 -287.23829021 258.31315435 -288.74938965 245.1730957 C-289.09493694 242.11540602 -289.2991865 239.04936666 -289.51953125 235.98046875 C-289.69249895 233.91382509 -289.8681875 231.84740697 -290.046875 229.78125 C-290.22753958 227.68118441 -290.40600034 225.58092782 -290.58203125 223.48046875 C-290.69816772 222.13795044 -290.69816772 222.13795044 -290.81665039 220.76831055 C-290.89967407 219.44440308 -290.89967407 219.44440308 -290.984375 218.09375 C-291.08069214 216.59279785 -291.08069214 216.59279785 -291.17895508 215.06152344 C-290.95487701 211.64384087 -290.14309767 210.06459732 -288.2734375 207.22265625 C-287.40199097 205.8771167 -287.40199097 205.8771167 -286.51293945 204.50439453 C-285.88476318 203.56450684 -285.25658691 202.62461914 -284.609375 201.65625 C-283.97539795 200.68284668 -283.3414209 199.70944336 -282.68823242 198.70654297 C-279.81369792 194.30712288 -276.89043829 189.94210356 -273.93359375 185.59765625 C-273.25852783 184.60173462 -273.25852783 184.60173462 -272.56982422 183.58569336 C-271.75375687 182.38882588 -270.92926527 181.19763372 -270.09423828 180.01391602 C-265.46872047 173.28708004 -263.53194129 165.82277067 -261.6796875 157.9921875 C-261.25720673 156.26805839 -260.83400814 154.54410505 -260.41015625 152.8203125 C-259.75566267 150.1384132 -259.1062651 147.45563669 -258.46923828 144.76953125 C-257.84598872 142.15236069 -257.20198551 139.54099894 -256.5546875 136.9296875 C-256.3711673 136.13267426 -256.18764709 135.33566101 -255.99856567 134.51449585 C-254.00906857 126.61983499 -249.82433702 122.44028389 -243.296875 117.59375 C-242.15939361 116.74190283 -241.02272441 115.88897043 -239.88671875 115.03515625 C-239.27038574 114.57383301 -238.65405273 114.11250977 -238.01904297 113.63720703 C-235.73829185 111.90707642 -233.48704658 110.14258852 -231.23828125 108.37109375 C-230.43028076 107.73558594 -229.62228027 107.10007812 -228.78979492 106.4453125 C-227.18766551 105.18356518 -225.58751701 103.9192979 -223.98950195 102.65234375 C-223.25304443 102.07484375 -222.51658691 101.49734375 -221.7578125 100.90234375 C-221.10216309 100.38470459 -220.44651367 99.86706543 -219.77099609 99.33374023 C-217.984375 98.09375 -217.984375 98.09375 -214.984375 97.09375 C-214.27871198 95.44321617 -213.62072081 93.77222736 -212.984375 92.09375 C-211.18632722 89.2109296 -209.32427652 86.4174742 -207.34667969 83.65600586 C-204.68301181 79.87622363 -202.57562325 76.29285376 -200.828125 72.00390625 C-196.33529168 62.17572037 -191.35862969 56.64994531 -181.33544922 52.71580505 C-174.31234186 50.15920998 -167.23099465 47.89299732 -160.04003906 45.85766602 C-147.23255294 42.15852252 -138.33608904 37.64370088 -128.56140137 28.53570557 C-126.50888794 26.65898795 -124.33491819 24.98971457 -122.09765625 23.33984375 C-121.44990234 22.85837891 -120.80214844 22.37691406 -120.13476562 21.88085938 C-119.52826172 21.43548828 -118.92175781 20.99011719 -118.296875 20.53125 C-117.00075536 19.57235314 -115.70516913 18.61273479 -114.41015625 17.65234375 C-113.86786377 17.25329834 -113.32557129 16.85425293 -112.7668457 16.44311523 C-110.84562173 15.06105546 -110.84562173 15.06105546 -108.90795898 12.94116211 C-104.56823102 10.19888891 -100.79614261 10.75059343 -95.78125 10.9765625 C-93.68336055 11.02132336 -91.58536541 11.06132238 -89.48730469 11.09716797 C-87.83426331 11.13025055 -87.83426331 11.13025055 -86.14782715 11.16400146 C-64.59885437 11.50962655 -46.61853805 8.92904357 -26.59277344 0.93408203 C-25.78791504 0.61344788 -24.98305664 0.29281372 -24.15380859 -0.03753662 C-22.66922308 -0.64101232 -21.19231089 -1.26392345 -19.72607422 -1.91070557 C-12.26291449 -5.05594003 -7.09696556 -3.1819954 0 0 Z M-115.55810547 31.39550781 C-122.53693601 34.38314918 -129.6521364 36.92559013 -136.8661499 39.28527832 C-145.39665345 42.21615024 -151.4629754 47.4649612 -158.07666016 53.43115234 C-161.25466592 56.20082463 -164.64828328 58.66643621 -168.046875 61.15625 C-173.98485991 65.5530951 -179.7896804 70.08691685 -185.54003906 74.72583008 C-189.58558733 77.98617323 -193.67052808 81.18640464 -197.796875 84.34375 C-198.32974121 84.75455811 -198.86260742 85.16536621 -199.41162109 85.58862305 C-201.83361058 87.45530697 -204.26629203 89.29998192 -206.734375 91.10546875 C-216.04190712 98.10030615 -221.55451847 107.27644726 -227.57470703 117.07104492 C-231.83507439 123.96114182 -236.34744785 130.67976859 -240.859375 137.40625 C-246.29654898 145.52043763 -251.69809314 153.65214751 -256.921875 161.90625 C-257.63802979 163.03317261 -257.63802979 163.03317261 -258.36865234 164.18286133 C-258.80773926 164.8817749 -259.24682617 165.58068848 -259.69921875 166.30078125 C-260.07167725 166.8935083 -260.44413574 167.48623535 -260.82788086 168.09692383 C-263.81531909 173.2550951 -265.78142974 178.33404636 -267.26855469 184.0925293 C-267.47542404 184.87243225 -267.6822934 185.65233521 -267.89543152 186.45587158 C-268.57379754 189.02452694 -269.24120121 191.59583505 -269.90625 194.16796875 C-270.13643074 195.05445414 -270.36661148 195.94093952 -270.6037674 196.8542881 C-271.82337473 201.55546723 -273.03398972 206.25886186 -274.23779297 210.96411133 C-275.4707271 215.77534993 -276.73539198 220.57762354 -278.00776291 225.37855816 C-278.99064744 229.11218597 -279.94851597 232.85192925 -280.90024567 236.59360695 C-281.35504264 238.36383609 -281.81888827 240.13177045 -282.29268646 241.8970089 C-285.42404866 253.60633617 -286.37622876 263.7822657 -285.19271088 275.84660912 C-284.86754932 279.3538487 -284.70480906 282.86686972 -284.52636719 286.3840332 C-284.14997038 293.01413345 -283.70270287 299.63898826 -283.22889328 306.262784 C-282.9477331 310.21158585 -282.68657587 314.15943369 -282.47363281 318.11254883 C-281.28306367 339.8755279 -277.39765405 357.24869978 -267.63067627 376.7585144 C-265.16013915 381.76356634 -262.97249882 386.88096607 -260.76953125 392.0078125 C-259.97545682 393.81604964 -259.17927494 395.62336296 -258.38085938 397.4296875 C-256.79392757 401.02447205 -255.21122192 404.621073 -253.63085938 408.21875 C-251.44256197 413.18951586 -249.2247786 418.14627039 -246.984375 423.09375 C-246.70103302 423.72551147 -246.41769104 424.35727295 -246.12576294 425.00817871 C-242.90766671 432.12093324 -239.34162916 437.60642468 -233.796875 443.09375 C-232.46425538 444.46296927 -231.13222842 445.83276559 -229.80078125 447.203125 C-228.8264917 448.1921582 -228.8264917 448.1921582 -227.83251953 449.20117188 C-225.2369121 451.8591836 -222.73066848 454.59279801 -220.234375 457.34375 C-219.36167969 458.29894531 -218.48898438 459.25414062 -217.58984375 460.23828125 C-216.73003906 461.18058594 -215.87023437 462.12289063 -214.984375 463.09375 C-213.17247292 465.07346935 -211.36015985 467.05279849 -209.546875 469.03125 C-209.09465576 469.52471924 -208.64243652 470.01818848 -208.17651367 470.52661133 C-205.80343603 473.11469795 -203.42726033 475.69988227 -201.046875 478.28125 C-200.55461426 478.81572754 -200.06235352 479.35020508 -199.55517578 479.90087891 C-198.54478182 480.99304642 -197.53007735 482.08124101 -196.51123047 483.16552734 C-194.01671736 485.8298864 -191.62127147 488.51103103 -189.3671875 491.3828125 C-181.32256022 501.34254467 -171.36203761 506.11691713 -159.97607422 511.61865234 C-155.29578182 513.92633365 -150.73725974 516.4432802 -146.171875 518.96875 C-144.37287976 519.95661095 -142.57339063 520.94357297 -140.7734375 521.9296875 C-139.84950195 522.4359668 -138.92556641 522.94224609 -137.97363281 523.46386719 C-131.2423151 527.13409563 -124.48236726 530.75189182 -117.7253418 534.37451172 C-116.16940308 535.21006592 -116.16940308 535.21006592 -114.58203125 536.0625 C-113.66945557 536.55169922 -112.75687988 537.04089844 -111.81665039 537.54492188 C-109.78714234 538.65475715 -107.79846171 539.84053934 -105.84107971 541.07313538 C-101.83567698 543.35607087 -97.95589763 544.20203106 -93.44482422 544.97241211 C-92.61921997 545.12411865 -91.79361572 545.2758252 -90.94299316 545.43212891 C-88.22741366 545.92644498 -85.50879064 546.40017468 -82.7890625 546.87109375 C-80.87634971 547.20861855 -78.9636816 547.54639665 -77.05105591 547.88441467 C-73.0397771 548.58929145 -69.0266584 549.28243073 -65.01220703 549.96899414 C-59.92477821 550.84124586 -54.84583684 551.75511124 -49.76777458 552.68012142 C-45.81436034 553.39291994 -41.8561863 554.07591335 -37.89624405 554.75140572 C-36.0249552 555.0753978 -34.15540555 555.40964105 -32.28799057 555.75526237 C-19.36243394 558.13160077 -8.30478782 557.98177553 4.60668945 555.54260063 C7.50487167 555.00258995 10.41154696 554.55050651 13.32586384 554.10770416 C16.60525303 553.6078787 19.87850032 553.06986484 23.15234375 552.53515625 C23.84875284 552.42154188 24.54516193 552.30792751 25.26267433 552.19087029 C28.92518603 551.59260347 32.58716841 550.99120519 36.2487793 550.38745117 C39.23703778 549.89538915 42.22628079 549.4100917 45.21655273 548.93041992 C48.89294364 548.34065477 52.56731276 547.73953985 56.24054909 547.13044548 C57.6188145 546.9037502 58.99771113 546.68085342 60.37726402 546.46212959 C70.55442039 544.84400001 79.35872606 542.29671033 88.3984375 537.31640625 C89.78869141 536.55650391 89.78869141 536.55650391 91.20703125 535.78125 C92.65916016 534.976875 92.65916016 534.976875 94.140625 534.15625 C96.26814807 532.99073736 98.39575458 531.82537705 100.5234375 530.66015625 C101.60141602 530.06734863 102.67939453 529.47454102 103.79003906 528.86376953 C107.86796532 526.62603373 111.95739869 524.41005786 116.04956055 522.19848633 C118.02935048 521.12735626 120.00737885 520.05296393 121.98364258 518.9753418 C127.11681718 516.17944103 132.26985435 513.43781027 137.47265625 510.7734375 C148.5977088 505.02418107 158.02089157 499.87025542 166.015625 490.09375 C167.11801526 488.84218308 168.22207464 487.59208354 169.328125 486.34375 C169.86566406 485.7146875 170.40320313 485.085625 170.95703125 484.4375 C173.82354863 481.17391285 176.79548198 478.01293139 179.765625 474.84375 C185.89461954 468.30102809 191.96783426 461.71158288 198.015625 455.09375 C198.95151761 454.07393848 199.88771984 453.05441102 200.82421875 452.03515625 C201.29577393 451.52170654 201.7673291 451.00825684 202.25317383 450.47924805 C203.54103137 449.07717615 204.82910057 447.67529867 206.1171875 446.2734375 C206.55764404 445.77996826 206.99810059 445.28649902 207.4519043 444.77807617 C208.61144057 443.52910806 209.82230424 442.32738061 211.05786133 441.15356445 C218.76529372 433.44447151 222.3570739 424.43910021 226.453125 414.53125 C228.01422599 410.77454973 229.58163993 407.02058991 231.15625 403.26953125 C231.55377975 402.31773987 231.95130951 401.36594849 232.36088562 400.38531494 C234.89020324 394.43122819 237.73358442 388.81360962 240.9375 383.19921875 C259.53130964 349.49804122 259.24060935 309.53567812 260.85023499 271.85450745 C260.94434632 269.71453603 261.05653209 267.57473324 261.22483826 265.4393158 C261.706027 256.54278335 258.78290279 247.81383583 256.59765625 239.27734375 C256.13814256 237.45248402 255.67930717 235.62745337 255.22111511 233.80226135 C254.26121588 229.99026217 253.29272831 226.18057736 252.31811523 222.37231445 C251.07519512 217.51251716 249.85457898 212.64744137 248.64046192 207.7803793 C247.69823821 204.01432408 246.74382461 200.25143865 245.78583336 196.48936653 C245.33115407 194.69753043 244.88026694 192.9047273 244.43338966 191.11092949 C241.24072479 177.98974413 241.24072479 177.98974413 235.015625 166.09375 C234.57962982 165.41664474 234.14363464 164.73953949 233.69442749 164.04191589 C232.41442902 162.05883233 231.09387787 160.1073156 229.765625 158.15625 C228.70331638 156.57887245 227.64219037 155.00069803 226.58203125 153.421875 C226.0111377 152.57173828 225.44024414 151.72160156 224.85205078 150.84570312 C221.43335709 145.72266201 218.07045207 140.56313618 214.703125 135.40625 C213.98705078 134.3116748 213.27097656 133.21709961 212.53320312 132.08935547 C208.92517411 126.56971825 205.33342409 121.040436 201.76953125 115.4921875 C201.09510986 114.44635498 200.42068848 113.40052246 199.72583008 112.32299805 C198.45350156 110.34866238 197.18611029 108.37113295 195.92456055 106.38989258 C191.50892238 99.55015285 186.84793012 94.57380236 180.328125 89.65625 C179.17142753 88.77793273 178.01520434 87.89899063 176.859375 87.01953125 C176.240625 86.5498291 175.621875 86.08012695 174.984375 85.59619141 C171.41277787 82.87054548 167.8719976 80.10528373 164.328125 77.34375 C162.78257247 76.14059881 161.23699933 74.9374741 159.69140625 73.734375 C158.5305249 72.83041992 158.5305249 72.83041992 157.34619141 71.90820312 C155.06331566 70.13087937 152.77984634 68.35432188 150.49609375 66.578125 C149.38850708 65.71501709 149.38850708 65.71501709 148.25854492 64.83447266 C146.75409057 63.66687066 145.24506207 62.50514041 143.73168945 61.34912109 C140.051102 58.5262726 136.49396784 55.66320067 133.078125 52.5234375 C120.5419574 41.32181965 105.95700738 36.81738987 90.26660156 31.79492188 C81.09751739 28.84656999 72.0012715 25.67685167 62.88949585 22.55706787 C59.74230875 21.48213337 56.59295653 20.41383097 53.44262695 19.34814453 C52.45569855 19.0140155 51.46877014 18.67988647 50.45193481 18.33563232 C48.59482673 17.70724326 46.73740279 17.07978659 44.87960815 16.45343018 C43.63148849 16.03054718 43.63148849 16.03054718 42.3581543 15.59912109 C41.63685837 15.35551849 40.91556244 15.11191589 40.17240906 14.8609314 C38.015625 14.09375 38.015625 14.09375 35.73158264 13.03567505 C32.23888932 11.82436922 28.87650225 11.65606823 25.21777344 11.51757812 C24.05463938 11.46491413 24.05463938 11.46491413 22.86800766 11.41118622 C12.50523096 10.970335 2.13628878 10.73959544 -8.234375 10.59375 C-9.24397781 10.57887543 -10.25358063 10.56400085 -11.29377747 10.54867554 C-49.40939054 10.0617242 -80.66157564 16.40203526 -115.55810547 31.39550781 Z " fill="#EF7F1A" transform="translate(298.984375,3.90625)"/>
<path d="M0 0 C-1.27439363 5.805571 -4.25323965 9.56334551 -9 13 C-11.4927753 13.82126318 -13.34170449 13.94574907 -16 14 C-15.20244207 8.61648399 -11.66687962 5.35289783 -7.5 2.1875 C-4.5536066 0.01118669 -3.98214417 0 0 0 Z " fill="#EF8525" transform="translate(375,235)"/>
</svg>
